<?xml version="1.0" encoding="UTF-8"?><svg id="b" xmlns="http://www.w3.org/2000/svg" viewBox="0 0 704 409.73"><g id="c"><path d="m89.79,228.6l12.4,7.6-21.2,13-21.2-13,1-131.2-13.6,8.6-14.8-9-1,124,12.4,7.6-21.2,13-21.2-13L2.39,20.8,47.19,0l43.6,26.6-1,202ZM60.79,34.2l-28.4-20.4v82.6l14.8-9,13.6,8.6v-61.8Z"/><path d="m166.18,236.2l1-135.6-28.4-11.6-1,139.6,12.4,7.6-21.2,13-21.2-13,1-202.4-12.4-7.6,21.2-13.2,6.8,4.2L153.18,0l44,20.4v35.2l-28.8,16.4,28.8,11-1,145.6,12.4,7.6-21.2,13-21.2-13Zm1-169.4V12.8l-28.4,13.6v56.8l28.4-16.4Z"/><path d="m249.38,31l16-11.4-61.4,10.4L216.98,0h108l-12.8,30-32.8-7.4-1,206,12.6,7.6-21.2,13-21.4-13,1-205.2Z"/><path d="m325.18,13l21.2-13,21.2,12.8-1,215.8,12.4,7.6-21.2,13-21.2-13,1-215.6-12.4-7.6Z"/><path d="m386.38,227.8l1-135.8h30l-1,114.6,35.6,25.8,1-135-65.6-40.4V24L438.78,0l38.8,13.6v39.4h-30v-22.8l-30.2-14.2v48.2l65.6,39.8-1,121.2-51.4,24-44.2-21.4Z"/><path d="m584.38,228.6l12.4,7.6-21.2,13-21.2-13,1-131.2-13.6,8.6-14.8-9-1,124,12.4,7.6-21.2,13-21.2-13,1-215.4L541.78,0l43.6,26.6-1,202Zm-29-194.4l-28.4-20.4v82.6l14.8-9,13.6,8.6v-61.8Z"/><path d="m591.18,26l21.2-13,6.4,3.8,28.4-16.8,44.8,20.8-1,207.8,12.4,7.6-21.2,13-21.2-13,1-223.8-28.4,13.6-1,202.6,12.4,7.6-21.2,13-21.2-13,1-202.6-12.4-7.6Z"/><polygon points="47 113.35 26 100.35 47.03 86.92 68 100.35 47 113.35"/><path d="m0,399.9l.11-.11v-122.96h16.7v6.61l11.71-8.35,13.77,6.29v16.81l-9.22,6.07,9.22,4.23v86.64l-21.25,14.31-21.03-9.54Zm25.59-95.53v-12.79l-8.78-3.9v22.88l8.78-6.18Zm0,90.65v-76.44l-8.78-3.79v76.44l8.78,3.79Z"/><path d="m397.06,399.9l.11-.11v-122.96h16.7v6.61l11.71-8.35,13.77,6.29v16.81l-9.22,6.07,9.22,4.23v86.64l-21.25,14.31-21.03-9.54Zm25.59-95.53v-12.79l-8.78-3.9v22.88l8.78-6.18Zm0,90.65v-76.44l-8.78-3.79v76.44l8.78,3.79Z"/><path d="m174.86,285.18l-.11.11v124.44h-16.7v-24.5h-9.22v24.5h-16.7v-120.86l20.93-13.44,21.79,9.76Zm-16.81,86.82v-78.04l-9.22-4.01v82.05h9.22Z"/><path d="m264.76,405.73v-128.9h16.7v6.94l11.71-8.24,13.77,6.29v71l-9.22,6.18,9.22,4.12-.33,42.61h-16.7l.33-32.42-8.78-3.79v36.21h-16.7Zm16.7-40.55l8.78-6.18v-67.1l-8.78-3.79v77.07Z"/><path d="m560.21,305.79l-5.31,15.18h-5.53v65.26l18.32,6.29-10.73,11.71-24.4-9.32.11-.11v-102.02l14.31-15.94h21.58l-5.31,15.18h-13.88v13.77h10.84Z"/><path d="m661.82,405.73v-128.9h16.7v6.94l11.71-8.24,13.77,6.29v18l-9.22,6.18,9.22,4.12-.33,95.61h-16.7l.33-85.42-8.78-3.79v89.21h-16.7Zm16.7-93.55l8.78-6.18v-14.1l-8.78-3.79v24.07Z"/></g></svg>